<svg width="48" height="48" viewBox="0 0 48 48" fill="none" xmlns="http://www.w3.org/2000/svg">
<path fill-rule="evenodd" clip-rule="evenodd" d="M31.0673 46.9425C28.833 47.63 26.4597 48 24 48C10.7452 48 0 37.2548 0 24C0 21.5403 0.370031 19.167 1.05746 16.9327C2.93889 21.0999 7.13077 24 12 24C18.6274 24 24 18.6274 24 12C24 7.13077 21.0999 2.93889 16.9327 1.05746C19.167 0.370031 21.5403 0 24 0C37.2548 0 48 10.7452 48 24C48 26.4597 47.63 28.833 46.9425 31.0673C45.0611 26.9001 40.8692 24 36 24C29.3726 24 24 29.3726 24 36C24 40.8692 26.9001 45.0611 31.0673 46.9425Z" fill="#EB5757"/>
<path fill-rule="evenodd" clip-rule="evenodd" d="M24 48C26.4597 48 28.833 47.63 31.0673 46.9425C26.9001 45.0611 24 40.8692 24 36C24 29.3726 29.3726 24 36 24C40.8692 24 45.0611 26.9001 46.9425 31.0673C47.63 28.833 48 26.4597 48 24C48 20.2501 47.14 16.701 45.6064 13.5393C28.2747 14.3704 14.3704 28.2747 13.5393 45.6064C16.701 47.14 20.2501 48 24 48Z" fill="#181818" fill-opacity="0.2"/>
</svg>
