<svg width="182" height="48" viewBox="0 0 182 48" fill="none" xmlns="http://www.w3.org/2000/svg">
<path d="M66.658 38H60.538V11.774H66.658V38ZM76.6497 11.054V26.156H77.4777C77.8257 26.156 78.0897 26.108 78.2697 26.012C78.4497 25.904 78.6297 25.73 78.8097 25.49L82.3377 20.234C82.5537 19.934 82.7997 19.712 83.0757 19.568C83.3517 19.412 83.7057 19.334 84.1377 19.334H89.2497L84.4257 25.976C83.9697 26.576 83.4297 27.068 82.8057 27.452C83.0817 27.656 83.3337 27.896 83.5617 28.172C83.7897 28.436 84.0057 28.736 84.2097 29.072L89.4657 38H84.4257C84.0057 38 83.6457 37.934 83.3457 37.802C83.0457 37.658 82.7937 37.412 82.5897 37.064L79.0617 30.458C78.8937 30.158 78.7197 29.966 78.5397 29.882C78.3597 29.786 78.0897 29.738 77.7297 29.738H76.6497V38H71.0697V11.054H76.6497ZM96.7591 20.972C97.4311 20.396 98.1571 19.934 98.9371 19.586C99.7291 19.226 100.671 19.046 101.763 19.046C102.783 19.046 103.683 19.226 104.463 19.586C105.255 19.934 105.921 20.426 106.461 21.062C107.001 21.686 107.409 22.436 107.685 23.312C107.961 24.176 108.099 25.118 108.099 26.138V38H102.519V26.138C102.519 25.226 102.309 24.518 101.889 24.014C101.469 23.498 100.851 23.24 100.035 23.24C99.4231 23.24 98.8471 23.372 98.3071 23.636C97.7791 23.888 97.2631 24.236 96.7591 24.68V38H91.1791V11.054H96.7591V20.972ZM118.388 38.288C117.5 38.288 116.714 38.162 116.03 37.91C115.358 37.646 114.788 37.28 114.32 36.812C113.864 36.332 113.516 35.756 113.276 35.084C113.036 34.412 112.916 33.662 112.916 32.834V23.186H111.332C111.044 23.186 110.798 23.096 110.594 22.916C110.39 22.724 110.288 22.448 110.288 22.088V19.91L113.258 19.334L114.356 14.78C114.5 14.204 114.908 13.916 115.58 13.916H118.496V19.37H123.122V23.186H118.496V32.456C118.496 32.888 118.598 33.248 118.802 33.536C119.018 33.812 119.324 33.95 119.72 33.95C119.924 33.95 120.092 33.932 120.224 33.896C120.368 33.848 120.488 33.8 120.584 33.752C120.692 33.692 120.788 33.644 120.872 33.608C120.968 33.56 121.076 33.536 121.196 33.536C121.364 33.536 121.496 33.578 121.592 33.662C121.7 33.734 121.808 33.854 121.916 34.022L123.608 36.668C122.888 37.208 122.078 37.616 121.178 37.892C120.278 38.156 119.348 38.288 118.388 38.288ZM131.233 19.334V38H125.653V19.334H131.233ZM131.809 14.222C131.809 14.666 131.719 15.086 131.539 15.482C131.359 15.866 131.113 16.208 130.801 16.508C130.489 16.796 130.123 17.03 129.703 17.21C129.295 17.378 128.857 17.462 128.389 17.462C127.933 17.462 127.507 17.378 127.111 17.21C126.715 17.03 126.361 16.796 126.049 16.508C125.749 16.208 125.509 15.866 125.329 15.482C125.161 15.086 125.077 14.666 125.077 14.222C125.077 13.766 125.161 13.34 125.329 12.944C125.509 12.548 125.749 12.2 126.049 11.9C126.361 11.6 126.715 11.366 127.111 11.198C127.507 11.03 127.933 10.946 128.389 10.946C128.857 10.946 129.295 11.03 129.703 11.198C130.123 11.366 130.489 11.6 130.801 11.9C131.113 12.2 131.359 12.548 131.539 12.944C131.719 13.34 131.809 13.766 131.809 14.222ZM146.986 23.42C146.842 23.648 146.686 23.81 146.518 23.906C146.362 24.002 146.158 24.05 145.906 24.05C145.642 24.05 145.378 23.996 145.114 23.888C144.85 23.768 144.562 23.642 144.25 23.51C143.95 23.378 143.608 23.258 143.224 23.15C142.84 23.03 142.402 22.97 141.91 22.97C141.202 22.97 140.656 23.108 140.272 23.384C139.9 23.648 139.714 24.02 139.714 24.5C139.714 24.848 139.834 25.136 140.074 25.364C140.326 25.592 140.656 25.796 141.064 25.976C141.472 26.144 141.934 26.306 142.45 26.462C142.966 26.618 143.494 26.792 144.034 26.984C144.574 27.176 145.102 27.404 145.618 27.668C146.134 27.92 146.596 28.238 147.004 28.622C147.412 28.994 147.736 29.45 147.976 29.99C148.228 30.53 148.354 31.178 148.354 31.934C148.354 32.858 148.186 33.71 147.85 34.49C147.514 35.27 147.01 35.942 146.338 36.506C145.678 37.07 144.856 37.508 143.872 37.82C142.9 38.132 141.778 38.288 140.506 38.288C139.87 38.288 139.234 38.228 138.598 38.108C137.962 37.988 137.344 37.826 136.744 37.622C136.156 37.418 135.61 37.178 135.106 36.902C134.602 36.614 134.17 36.308 133.81 35.984L135.106 33.932C135.25 33.692 135.43 33.506 135.646 33.374C135.874 33.23 136.162 33.158 136.51 33.158C136.834 33.158 137.122 33.23 137.374 33.374C137.638 33.518 137.92 33.674 138.22 33.842C138.52 34.01 138.868 34.166 139.264 34.31C139.672 34.454 140.182 34.526 140.794 34.526C141.226 34.526 141.592 34.484 141.892 34.4C142.192 34.304 142.432 34.178 142.612 34.022C142.792 33.866 142.924 33.692 143.008 33.5C143.092 33.308 143.134 33.11 143.134 32.906C143.134 32.534 143.008 32.228 142.756 31.988C142.504 31.748 142.174 31.544 141.766 31.376C141.358 31.196 140.89 31.034 140.362 30.89C139.846 30.734 139.318 30.56 138.778 30.368C138.238 30.176 137.704 29.948 137.176 29.684C136.66 29.408 136.198 29.066 135.79 28.658C135.382 28.238 135.052 27.728 134.8 27.128C134.548 26.528 134.422 25.802 134.422 24.95C134.422 24.158 134.572 23.408 134.872 22.7C135.184 21.98 135.646 21.35 136.258 20.81C136.87 20.27 137.638 19.844 138.562 19.532C139.486 19.208 140.566 19.046 141.802 19.046C142.474 19.046 143.122 19.106 143.746 19.226C144.382 19.346 144.976 19.514 145.528 19.73C146.08 19.946 146.584 20.204 147.04 20.504C147.496 20.792 147.898 21.11 148.246 21.458L146.986 23.42ZM160.786 30.404C159.67 30.452 158.752 30.548 158.032 30.692C157.312 30.836 156.742 31.016 156.322 31.232C155.902 31.448 155.608 31.694 155.44 31.97C155.284 32.246 155.206 32.546 155.206 32.87C155.206 33.506 155.38 33.956 155.728 34.22C156.076 34.472 156.586 34.598 157.258 34.598C157.978 34.598 158.608 34.472 159.148 34.22C159.688 33.968 160.234 33.56 160.786 32.996V30.404ZM150.742 21.926C151.87 20.93 153.118 20.192 154.486 19.712C155.866 19.22 157.342 18.974 158.914 18.974C160.042 18.974 161.056 19.16 161.956 19.532C162.868 19.892 163.636 20.402 164.26 21.062C164.896 21.71 165.382 22.484 165.718 23.384C166.054 24.284 166.222 25.268 166.222 26.336V38H163.666C163.138 38 162.736 37.928 162.46 37.784C162.196 37.64 161.974 37.34 161.794 36.884L161.398 35.858C160.93 36.254 160.48 36.602 160.048 36.902C159.616 37.202 159.166 37.46 158.698 37.676C158.242 37.88 157.75 38.03 157.222 38.126C156.706 38.234 156.13 38.288 155.494 38.288C154.642 38.288 153.868 38.18 153.172 37.964C152.476 37.736 151.882 37.406 151.39 36.974C150.91 36.542 150.538 36.008 150.274 35.372C150.01 34.724 149.878 33.98 149.878 33.14C149.878 32.468 150.046 31.79 150.382 31.106C150.718 30.41 151.3 29.78 152.128 29.216C152.956 28.64 154.072 28.16 155.476 27.776C156.88 27.392 158.65 27.176 160.786 27.128V26.336C160.786 25.244 160.558 24.458 160.102 23.978C159.658 23.486 159.022 23.24 158.194 23.24C157.534 23.24 156.994 23.312 156.574 23.456C156.154 23.6 155.776 23.762 155.44 23.942C155.116 24.122 154.798 24.284 154.486 24.428C154.174 24.572 153.802 24.644 153.37 24.644C152.986 24.644 152.662 24.548 152.398 24.356C152.134 24.164 151.918 23.936 151.75 23.672L150.742 21.926ZM175.008 22.214C175.584 21.206 176.244 20.414 176.988 19.838C177.744 19.262 178.608 18.974 179.58 18.974C180.42 18.974 181.104 19.172 181.632 19.568L181.272 23.672C181.212 23.936 181.11 24.116 180.966 24.212C180.834 24.308 180.648 24.356 180.408 24.356C180.312 24.356 180.186 24.35 180.03 24.338C179.874 24.326 179.712 24.314 179.544 24.302C179.376 24.278 179.202 24.26 179.022 24.248C178.854 24.224 178.698 24.212 178.554 24.212C177.738 24.212 177.084 24.428 176.592 24.86C176.112 25.292 175.704 25.892 175.368 26.66V38H169.788V19.334H173.1C173.376 19.334 173.604 19.358 173.784 19.406C173.976 19.454 174.132 19.532 174.252 19.64C174.384 19.736 174.48 19.868 174.54 20.036C174.612 20.204 174.672 20.408 174.72 20.648L175.008 22.214Z" fill="black"/>
<path fill-rule="evenodd" clip-rule="evenodd" d="M31.0673 46.9425C28.833 47.63 26.4597 48 24 48C10.7452 48 0 37.2548 0 24C0 21.5403 0.370031 19.167 1.05746 16.9327C2.93889 21.0999 7.13077 24 12 24C18.6274 24 24 18.6274 24 12C24 7.13077 21.0999 2.93889 16.9327 1.05746C19.167 0.370031 21.5403 0 24 0C37.2548 0 48 10.7452 48 24C48 26.4597 47.63 28.833 46.9425 31.0673C45.0611 26.9001 40.8692 24 36 24C29.3726 24 24 29.3726 24 36C24 40.8692 26.9001 45.0611 31.0673 46.9425Z" fill="#EB5757"/>
<path fill-rule="evenodd" clip-rule="evenodd" d="M24 48C26.4597 48 28.833 47.63 31.0673 46.9425C26.9001 45.0611 24 40.8692 24 36C24 29.3726 29.3726 24 36 24C40.8692 24 45.0611 26.9001 46.9425 31.0673C47.63 28.833 48 26.4597 48 24C48 20.2501 47.14 16.701 45.6064 13.5393C28.2747 14.3704 14.3704 28.2747 13.5393 45.6064C16.701 47.14 20.2501 48 24 48Z" fill="#181818" fill-opacity="0.2"/>
</svg>
